<svg width="32" height="32" viewBox="0 0 32 32" fill="none" xmlns="http://www.w3.org/2000/svg">
<path d="M6.39576 6.54721C6.39576 6.54721 6.79682 4.28161 8.52909 4.28161H10.6752V3.68428C10.6752 3.40138 10.7876 3.13007 10.9876 2.93003C11.1877 2.73 11.459 2.61761 11.7419 2.61761H20.2411C20.524 2.61761 20.7953 2.73 20.9953 2.93003C21.1954 3.13007 21.3078 3.40138 21.3078 3.68428V4.28161H23.4624C23.7211 4.28031 23.977 4.33558 24.2121 4.44356C24.4472 4.55153 24.6559 4.70959 24.8235 4.90668C25.2111 5.38218 25.4763 5.94546 25.5958 6.54721C25.5958 6.54721 26.2592 9.90082 26.8587 12.7723H24.8576L23.4667 6.40001L8.49496 6.39148L7.11256 12.7701H5.08162L6.39576 6.54721ZM29.8624 17.0304C29.8624 17.5958 29.638 18.1381 29.2383 18.5382C28.8387 18.9382 28.2966 19.1632 27.7312 19.1637L25.5979 27.6395C25.5979 27.6395 25.1968 29.8624 23.4646 29.8624H8.53122C6.79682 29.8624 6.39789 27.6395 6.39789 27.6395L4.22616 19.1573C3.67264 19.136 3.14919 18.8999 2.76674 18.4992C2.38428 18.0985 2.17288 17.5646 2.17731 17.0107C2.18175 16.4567 2.40169 15.9263 2.79051 15.5318C3.17933 15.1372 3.7065 14.9096 4.26029 14.8971H27.727C28.2928 14.8971 28.8354 15.1218 29.2355 15.5219C29.6355 15.922 29.8603 16.4646 29.8603 17.0304M10.7371 25.8773L10.7307 23.4773L9.89869 20.2005C9.87852 20.0512 9.82914 19.9073 9.75336 19.7771C9.67758 19.6469 9.57689 19.5328 9.45704 19.4415C9.33719 19.3502 9.20053 19.2834 9.05485 19.2449C8.90918 19.2063 8.75735 19.1969 8.60802 19.2171C8.4587 19.2373 8.31482 19.2866 8.18458 19.3624C8.05434 19.4382 7.94031 19.5389 7.84899 19.6587C7.75766 19.7786 7.69084 19.9152 7.65233 20.0609C7.61382 20.2066 7.60439 20.3584 7.62456 20.5077L8.06402 23.4837L8.46296 26.1867C8.50398 26.4882 8.66312 26.7612 8.90536 26.9454C9.14761 27.1296 9.45312 27.2101 9.75469 27.1691C10.0563 27.1281 10.3292 26.9689 10.5134 26.7267C10.6977 26.4844 10.7781 26.1789 10.7371 25.8773ZM15.0038 20.3371C15.0038 20.1876 14.9743 20.0395 14.917 19.9014C14.8597 19.7634 14.7758 19.6379 14.67 19.5323C14.5642 19.4267 14.4386 19.343 14.3004 19.286C14.1621 19.2289 14.0141 19.1997 13.8646 19.2H13.8432C13.701 19.1997 13.5602 19.2279 13.429 19.2829C13.2979 19.3378 13.179 19.4185 13.0795 19.52C12.9683 19.6255 12.8797 19.7525 12.8192 19.8934C12.7586 20.0342 12.7275 20.1859 12.7275 20.3392V26.0565C12.7275 26.3584 12.8474 26.6479 13.0608 26.8613C13.2743 27.0748 13.5638 27.1947 13.8656 27.1947C14.1675 27.1947 14.457 27.0748 14.6704 26.8613C14.8838 26.6479 15.0038 26.3584 15.0038 26.0565V20.3371ZM19.2662 20.3371C19.2656 20.1099 19.1968 19.8881 19.0686 19.7006C18.9403 19.513 18.7587 19.3683 18.5472 19.2853C18.4147 19.2287 18.2721 19.1995 18.128 19.1995C17.9839 19.1995 17.8413 19.2287 17.7088 19.2853C17.4973 19.3683 17.3157 19.513 17.1875 19.7006C17.0593 19.8881 16.9904 20.1099 16.9899 20.3371V26.0544C16.9899 26.3563 17.1098 26.6458 17.3232 26.8592C17.5367 27.0726 17.8262 27.1925 18.128 27.1925C18.4299 27.1925 18.7194 27.0726 18.9328 26.8592C19.1462 26.6458 19.2662 26.3563 19.2662 26.0544V20.3371ZM24.3542 20.5077C24.3743 20.3586 24.3649 20.2069 24.3265 20.0613C24.288 19.9158 24.2213 19.7792 24.13 19.6595C24.0388 19.5397 23.9249 19.4391 23.7948 19.3634C23.6647 19.2877 23.5209 19.2383 23.3718 19.2181C23.2226 19.198 23.0709 19.2074 22.9253 19.2458C22.7798 19.2843 22.6432 19.351 22.5235 19.4423C22.4037 19.5335 22.3031 19.6474 22.2274 19.7775C22.1517 19.9076 22.1023 20.0514 22.0822 20.2005L21.248 23.4539L21.2438 25.8773C21.2234 26.0265 21.2327 26.1782 21.271 26.3238C21.3094 26.4694 21.376 26.6061 21.4671 26.7259C21.5582 26.8458 21.6721 26.9465 21.8021 27.0224C21.9322 27.0982 22.0759 27.1477 22.2251 27.168C22.3743 27.1883 22.526 27.1791 22.6716 27.1407C22.8172 27.1024 22.9538 27.0358 23.0737 26.9447C23.1935 26.8535 23.2942 26.7397 23.3701 26.6096C23.446 26.4796 23.4954 26.3359 23.5158 26.1867L24.3542 20.5077Z" fill="white"/>
</svg>
