<svg width="26" height="26" viewBox="0 0 26 26" fill="none" xmlns="http://www.w3.org/2000/svg">
<path d="M12.9998 2.16666C7.02706 2.16666 2.1665 7.02721 2.1665 13C2.1665 18.9728 7.02706 23.8333 12.9998 23.8333C18.9726 23.8333 23.8332 18.9728 23.8332 13C23.8332 7.02721 18.9726 2.16666 12.9998 2.16666ZM12.9998 3.97221C17.9967 3.97221 22.0276 8.00311 22.0276 13C22.0298 15.1612 21.2548 17.2512 19.8441 18.8884C18.4334 20.5257 16.481 21.6012 14.3432 21.9185V15.6325H16.9143L17.3178 13.0208H14.3432V11.5944C14.3432 10.511 14.6998 9.54777 15.7136 9.54777H17.3431V7.26916C17.0569 7.23034 16.4512 7.14638 15.3064 7.14638C12.9159 7.14638 11.5148 8.40846 11.5148 11.2847V13.0208H9.05741V15.6325H11.5148V21.896C9.40656 21.549 7.4904 20.4637 6.10866 18.8341C4.72691 17.2044 3.96961 15.1366 3.97206 13C3.97206 8.00311 8.00296 3.97221 12.9998 3.97221Z" fill="white"/>
</svg>
