<svg width="32" height="32" viewBox="0 0 32 32" fill="none" xmlns="http://www.w3.org/2000/svg">
<path d="M15.9998 29.3333C14.1776 29.3333 12.4554 28.9831 10.8332 28.2827C9.21095 27.5822 7.7945 26.6267 6.58384 25.416C5.37228 24.2053 4.41673 22.7889 3.71717 21.1667C3.01762 19.5444 2.66739 17.8222 2.6665 16C2.6665 14.1555 3.01673 12.428 3.71717 10.8173C4.41762 9.20666 5.37317 7.79555 6.58384 6.58399C7.7945 5.37243 9.2105 4.41688 10.8318 3.71732C12.4532 3.01777 14.1758 2.66755 15.9998 2.66666C17.8443 2.66666 19.5723 3.01688 21.1838 3.71732C22.7954 4.41777 24.2061 5.37332 25.4158 6.58399C26.6274 7.79466 27.5829 9.20577 28.2825 10.8173C28.9821 12.4289 29.3323 14.1564 29.3332 16C29.3332 17.8222 28.9829 19.5444 28.2825 21.1667C27.5821 22.7889 26.6265 24.2058 25.4158 25.4173C24.2052 26.628 22.7941 27.5835 21.1825 28.284C19.5709 28.9844 17.8434 29.3342 15.9998 29.3333ZM15.9998 26.6C16.5776 25.8 17.0776 24.9667 17.4998 24.1C17.9221 23.2333 18.2665 22.3111 18.5332 21.3333H13.4665C13.7332 22.3111 14.0776 23.2333 14.4998 24.1C14.9221 24.9667 15.4221 25.8 15.9998 26.6ZM12.5332 26.0667C12.1332 25.3333 11.7834 24.572 11.4838 23.7827C11.1843 22.9933 10.9341 22.1769 10.7332 21.3333H6.79984C7.44428 22.4444 8.25006 23.4111 9.21717 24.2333C10.1843 25.0555 11.2896 25.6667 12.5332 26.0667ZM19.4665 26.0667C20.7109 25.6667 21.8167 25.0555 22.7838 24.2333C23.7509 23.4111 24.5563 22.4444 25.1998 21.3333H21.2665C21.0665 22.1778 20.8167 22.9947 20.5172 23.784C20.2176 24.5733 19.8674 25.3342 19.4665 26.0667ZM5.6665 18.6667H10.1998C10.1332 18.2222 10.0834 17.7835 10.0505 17.3507C10.0176 16.9178 10.0007 16.4675 9.99984 16C9.99984 15.5333 10.0167 15.0835 10.0505 14.6507C10.0843 14.2178 10.1341 13.7787 10.1998 13.3333H5.6665C5.55539 13.7778 5.47228 14.2169 5.41717 14.6507C5.36206 15.0844 5.33406 15.5342 5.33317 16C5.33317 16.4667 5.36117 16.9169 5.41717 17.3507C5.47317 17.7844 5.55628 18.2231 5.6665 18.6667ZM12.8665 18.6667H19.1332C19.1998 18.2222 19.2501 17.7835 19.2838 17.3507C19.3176 16.9178 19.3341 16.4675 19.3332 16C19.3332 15.5333 19.3163 15.0835 19.2825 14.6507C19.2487 14.2178 19.1989 13.7787 19.1332 13.3333H12.8665C12.7998 13.7778 12.7501 14.2169 12.7172 14.6507C12.6843 15.0844 12.6674 15.5342 12.6665 16C12.6665 16.4667 12.6834 16.9169 12.7172 17.3507C12.7509 17.7844 12.8007 18.2231 12.8665 18.6667ZM21.7998 18.6667H26.3332C26.4443 18.2222 26.5278 17.7835 26.5838 17.3507C26.6398 16.9178 26.6674 16.4675 26.6665 16C26.6665 15.5333 26.6389 15.0835 26.5838 14.6507C26.5287 14.2178 26.4452 13.7787 26.3332 13.3333H21.7998C21.8665 13.7778 21.9167 14.2169 21.9505 14.6507C21.9843 15.0844 22.0007 15.5342 21.9998 16C21.9998 16.4667 21.9829 16.9169 21.9492 17.3507C21.9154 17.7844 21.8656 18.2231 21.7998 18.6667ZM21.2665 10.6667H25.1998C24.5554 9.55555 23.7501 8.58888 22.7838 7.76666C21.8176 6.94443 20.7118 6.33332 19.4665 5.93332C19.8665 6.66666 20.2167 7.42799 20.5172 8.21732C20.8176 9.00666 21.0674 9.8231 21.2665 10.6667ZM13.4665 10.6667H18.5332C18.2665 9.68888 17.9221 8.76666 17.4998 7.89999C17.0776 7.03332 16.5776 6.19999 15.9998 5.39999C15.4221 6.19999 14.9221 7.03332 14.4998 7.89999C14.0776 8.76666 13.7332 9.68888 13.4665 10.6667ZM6.79984 10.6667H10.7332C10.9332 9.82221 11.1834 9.00532 11.4838 8.21599C11.7843 7.42666 12.1341 6.66577 12.5332 5.93332C11.2887 6.33332 10.1829 6.94443 9.21584 7.76666C8.24873 8.58888 7.44339 9.55555 6.79984 10.6667Z" fill="white"/>
</svg>
