<svg width="234" height="184" viewBox="0 0 234 184" fill="none" xmlns="http://www.w3.org/2000/svg">
<path d="M19.4191 38.5677C7.31357 25.6881 0 0 0 0H234V184C234 184 217.888 168.941 206.813 159.895C184.975 142.059 166.444 137.49 146.614 118.114C128.794 100.701 129.847 83.8912 109.718 68.2969C82.0118 46.833 42.7199 63.3583 19.4191 38.5677Z" fill="#61BDB2"/>
<path d="M100.22 54.2963C100.259 53.9012 100.741 53.9012 100.78 54.2963L101.111 57.6109C101.537 61.8909 104.372 65.2653 107.967 65.7731L110.751 66.1664C111.083 66.2133 111.083 66.7867 110.751 66.8336L107.967 67.2269C104.372 67.7347 101.537 71.1091 101.111 75.3891L100.78 78.7036C100.741 79.0988 100.259 79.0988 100.22 78.7036L99.8894 75.3891C99.4629 71.1091 96.6283 67.7347 93.0331 67.2269L90.2489 66.8336C89.917 66.7867 89.917 66.2133 90.2489 66.1664L93.0331 65.7731C96.6283 65.2653 99.4629 61.8909 99.8894 57.6109L100.22 54.2963Z" fill="#FAF7F1"/>
<path d="M128.033 74.486C128.099 73.838 128.901 73.838 128.967 74.486L129.518 79.9218C130.229 86.941 134.953 92.4751 140.945 93.3079L145.585 93.9529C146.138 94.0299 146.138 94.9701 145.585 95.0471L140.945 95.6921C134.953 96.5249 130.229 102.059 129.518 109.078L128.967 114.514C128.901 115.162 128.099 115.162 128.033 114.514L127.482 109.078C126.771 102.059 122.047 96.5249 116.055 95.6921L111.415 95.0471C110.862 94.9701 110.862 94.0299 111.415 93.9529L116.055 93.3079C122.047 92.4751 126.771 86.941 127.482 79.9218L128.033 74.486Z" fill="#FAF7F1"/>
</svg>
