<svg width="232" height="184" viewBox="0 0 232 184" fill="none" xmlns="http://www.w3.org/2000/svg">
<path d="M212.581 38.5677C224.686 25.6881 232 0 232 0H-2V184C-2 184 14.1121 168.941 25.1867 159.895C47.0247 142.059 65.5565 137.49 85.3859 118.114C103.206 100.701 102.153 83.8912 122.282 68.2969C149.988 46.833 189.28 63.3583 212.581 38.5677Z" fill="#61BDB2"/>
<path d="M103.033 75.486C103.099 74.838 103.901 74.838 103.967 75.486L104.518 80.9218C105.229 87.941 109.953 93.4751 115.945 94.3079L120.585 94.9529C121.138 95.0299 121.138 95.9701 120.585 96.0471L115.945 96.6921C109.953 97.5249 105.229 103.059 104.518 110.078L103.967 115.514C103.901 116.162 103.099 116.162 103.033 115.514L102.482 110.078C101.771 103.059 97.0472 97.5249 91.0552 96.6921L86.4149 96.0471C85.8617 95.9701 85.8617 95.0299 86.4149 94.9529L91.0552 94.3079C97.0472 93.4751 101.771 87.941 102.482 80.9218L103.033 75.486Z" fill="#FAF7F1"/>
<path d="M130.733 55.2371C130.771 54.921 131.229 54.921 131.267 55.2371L131.581 57.8887C131.988 61.3127 134.687 64.0122 138.111 64.4185L140.763 64.7331C141.079 64.7707 141.079 65.2293 140.763 65.2669L138.111 65.5815C134.687 65.9878 131.988 68.6873 131.581 72.1113L131.267 74.7629C131.229 75.079 130.771 75.079 130.733 74.7629L130.419 72.1113C130.012 68.6873 127.313 65.9878 123.889 65.5815L121.237 65.2669C120.921 65.2293 120.921 64.7707 121.237 64.7331L123.889 64.4185C127.313 64.0122 130.012 61.3127 130.419 57.8887L130.733 55.2371Z" fill="#FAF7F1"/>
</svg>
