<svg width="26" height="26" viewBox="0 0 26 26" fill="none" xmlns="http://www.w3.org/2000/svg">
<path d="M25.1346 23.3656C25.2507 23.4818 25.3428 23.6196 25.4057 23.7714C25.4686 23.9231 25.5009 24.0858 25.5009 24.25C25.5009 24.4142 25.4686 24.5769 25.4057 24.7286C25.3428 24.8804 25.2507 25.0182 25.1346 25.1344C25.0184 25.2505 24.8806 25.3426 24.7288 25.4055C24.5771 25.4683 24.4145 25.5007 24.2502 25.5007C24.086 25.5007 23.9233 25.4683 23.7716 25.4055C23.6198 25.3426 23.482 25.2505 23.3658 25.1344L13.0002 14.7672L2.63458 25.1344C2.40003 25.3689 2.08191 25.5007 1.75021 25.5007C1.4185 25.5007 1.10038 25.3689 0.865832 25.1344C0.631281 24.8998 0.499512 24.5817 0.499512 24.25C0.499512 23.9183 0.631281 23.6002 0.865832 23.3656L11.233 13L0.865832 2.63437C0.631281 2.39982 0.499512 2.0817 0.499512 1.74999C0.499512 1.41829 0.631281 1.10017 0.865832 0.865618C1.10038 0.631067 1.4185 0.499298 1.75021 0.499298C2.08191 0.499298 2.40003 0.631067 2.63458 0.865618L13.0002 11.2328L23.3658 0.865618C23.6004 0.631067 23.9185 0.499298 24.2502 0.499298C24.5819 0.499298 24.9 0.631067 25.1346 0.865618C25.3691 1.10017 25.5009 1.41829 25.5009 1.74999C25.5009 2.0817 25.3691 2.39982 25.1346 2.63437L14.7674 13L25.1346 23.3656Z" fill="white"/>
</svg>
