<svg width="100" height="79" viewBox="0 0 100 79" fill="none" xmlns="http://www.w3.org/2000/svg">
<path d="M8.29875 62.1509C3.12545 67.655 0 78.6328 0 78.6328H100V0.000335693C100 0.000335693 93.1145 6.43601 88.3817 10.3015C79.0493 17.9239 71.1297 19.8764 62.6556 28.1569C55.0403 35.5983 55.4903 42.7819 46.888 49.4461C35.0478 58.6187 18.2564 51.5566 8.29875 62.1509Z" fill="#FBC586"/>
<path d="M53.7331 32.2777C53.7707 31.9074 54.2293 31.9074 54.2669 32.2777L54.5815 35.3839C54.9878 39.3949 57.6873 42.5572 61.1113 43.0331L63.7629 43.4017C64.079 43.4456 64.079 43.9829 63.7629 44.0269L61.1113 44.3955C57.6873 44.8714 54.9878 48.0337 54.5815 52.0446L54.2669 55.1508C54.2293 55.5211 53.7707 55.5211 53.7331 55.1508L53.4185 52.0446C53.0122 48.0337 50.3127 44.8714 46.8887 44.3955L44.2371 44.0269C43.921 43.9829 43.921 43.4456 44.2371 43.4017L46.8887 43.0331C50.3127 42.5572 53.0122 39.3949 53.4185 35.3839L53.7331 32.2777Z" fill="white"/>
<path d="M69.8399 16.2008C69.8624 15.9331 70.1376 15.9331 70.1601 16.2008L70.3489 18.4469C70.5927 21.3472 72.2124 23.6339 74.2668 23.978L75.8577 24.2445C76.0474 24.2763 76.0474 24.6648 75.8577 24.6966L74.2668 24.9631C72.2124 25.3073 70.5927 27.594 70.3489 30.4943L70.1601 32.7403C70.1376 33.0081 69.8624 33.0081 69.8399 32.7403L69.6511 30.4943C69.4073 27.594 67.7876 25.3073 65.7332 24.9631L64.1422 24.6966C63.9526 24.6648 63.9526 24.2763 64.1422 24.2445L65.7332 23.978C67.7876 23.6339 69.4073 21.3472 69.6511 18.4469L69.8399 16.2008Z" fill="white"/>
</svg>
