<svg width="100" height="79" viewBox="0 0 100 79" fill="none" xmlns="http://www.w3.org/2000/svg">
<path d="M91.7012 16.4819C96.8745 10.9778 100 0 100 0H0V78.6325C0 78.6325 6.88552 72.1968 11.6183 68.3313C20.9507 60.7089 28.8703 58.7564 37.3444 50.4759C44.9597 43.0345 44.5097 35.8509 53.112 29.1867C64.9522 20.0141 81.7436 27.0762 91.7012 16.4819Z" fill="#FBC586"/>
<path d="M32.7331 38.2777C32.7707 37.9074 33.2293 37.9074 33.2669 38.2777L33.5815 41.3839C33.9878 45.3949 36.6873 48.5572 40.1113 49.0331L42.7629 49.4017C43.079 49.4456 43.079 49.9829 42.7629 50.0269L40.1113 50.3955C36.6873 50.8714 33.9878 54.0337 33.5815 58.0446L33.2669 61.1508C33.2293 61.5211 32.7707 61.5211 32.7331 61.1508L32.4185 58.0446C32.0122 54.0337 29.3127 50.8714 25.8887 50.3955L23.2371 50.0269C22.921 49.9829 22.921 49.4456 23.2371 49.4017L25.8887 49.0331C29.3127 48.5572 32.0122 45.3949 32.4185 41.3839L32.7331 38.2777Z" fill="white"/>
<path d="M48.8399 22.2008C48.8624 21.9331 49.1376 21.9331 49.1601 22.2008L49.3489 24.4469C49.5927 27.3472 51.2124 29.6339 53.2668 29.978L54.8577 30.2445C55.0474 30.2763 55.0474 30.6648 54.8577 30.6966L53.2668 30.9631C51.2124 31.3073 49.5927 33.594 49.3489 36.4943L49.1601 38.7403C49.1376 39.0081 48.8624 39.0081 48.8399 38.7403L48.6511 36.4943C48.4073 33.594 46.7876 31.3073 44.7332 30.9631L43.1422 30.6966C42.9526 30.6648 42.9526 30.2763 43.1422 30.2445L44.7332 29.978C46.7876 29.6339 48.4073 27.3472 48.6511 24.4469L48.8399 22.2008Z" fill="white"/>
</svg>
