<svg width="160" height="77" viewBox="0 0 160 77" fill="none" xmlns="http://www.w3.org/2000/svg">
<path fill-rule="evenodd" clip-rule="evenodd" d="M22.0924 54.3669C37.4651 39.0028 58.3098 30.372 80.0441 30.372C101.778 30.372 122.623 39.0028 137.996 54.3669C146.375 62.6298 159.288 49.7057 150.9 41.4337C132.04 22.7429 106.596 12.2029 80.0441 12.0818C53.492 12.2033 28.0487 22.7432 9.18875 41.4337C0.801084 49.7022 13.7096 62.6333 22.0924 54.3669Z" fill="url(#paint0_linear_56_656)"/>
<path fill-rule="evenodd" clip-rule="evenodd" d="M34.7379 58.9688C47.8233 49.113 63.2249 43.4622 79.6626 43.4509C96.1003 43.4397 111.513 49.1214 124.587 58.9688C128.53 61.9383 134.786 59.6032 137.072 55.6878C139.801 51.0097 137.75 46.1526 133.798 43.1753C102.248 19.4129 57.0773 19.4129 25.5269 43.1753C21.5939 46.1357 19.5618 51.0753 22.2536 55.6878C24.5204 59.5722 30.7745 61.9531 34.7379 58.9688Z" fill="url(#paint1_linear_56_656)"/>
<path fill-rule="evenodd" clip-rule="evenodd" d="M52.3936 62.1406C61.0116 57.9597 70.4655 55.7876 80.044 55.7876C89.6226 55.7876 99.0765 57.9597 107.694 62.1406C112.119 64.3087 117.562 63.3431 120.179 58.8596C122.526 54.837 121.351 48.5251 116.905 46.3471C105.45 40.6609 92.8335 37.7021 80.044 37.7021C67.2546 37.7021 54.6386 40.6609 43.1827 46.3471C38.7563 48.5159 37.5531 54.8222 39.9094 58.8596C42.5512 63.3868 47.9503 64.3172 52.3936 62.1406Z" fill="url(#paint2_linear_56_656)"/>
<path fill-rule="evenodd" clip-rule="evenodd" d="M130.983 46.5198C131.098 46.0776 131.155 45.6222 131.152 45.1651C131.147 44.9936 131.142 44.8169 131.136 44.6351C131.135 44.5742 131.128 44.5136 131.116 44.4539V44.3778V44.332C131.018 43.4533 130.752 42.6016 130.333 41.8234C130.191 41.5418 130.026 41.2727 129.839 41.0192C129.777 40.9304 129.709 40.8416 129.636 40.7528L129.557 40.6492C129.536 40.6189 129.515 40.5899 129.495 40.5596C128.665 39.5945 127.593 38.868 126.39 38.455C125.931 38.2934 125.46 38.1708 124.98 38.0885C124.808 38.0532 124.628 38.018 124.435 37.9834C124.365 37.9757 124.289 37.9672 124.208 37.9602L124.118 37.9482L124.027 37.9355C123.507 37.8802 122.983 37.8656 122.46 37.8918C122.272 37.9078 122.062 37.9242 121.829 37.9411L121.56 37.9792L121.304 38.0018C121.045 38.0611 120.776 38.059 120.518 37.9957C120.26 37.9325 120.02 37.8097 119.818 37.6374C119.408 37.1198 119.22 36.4606 119.296 35.8048C119.315 35.0517 119.579 34.3253 120.047 33.7353C120.339 33.3678 120.711 33.0714 121.135 32.8684C121.563 32.6294 122.062 32.5498 122.544 32.6435C122.892 32.7171 123.209 32.8986 123.448 33.1623C123.69 33.4351 123.901 33.7339 124.077 34.0532L124.235 34.3055L124.394 34.5741C124.51 34.7491 124.636 34.9173 124.771 35.0781C125.073 35.4449 125.446 35.748 125.866 35.9697C126.47 36.3031 127.15 36.4759 127.84 36.4715C128.132 36.5042 128.428 36.469 128.704 36.3686C128.981 36.2683 129.23 36.1054 129.433 35.8929C129.856 35.3548 129.886 34.5149 129.523 33.373C129.197 32.3041 128.621 31.3287 127.841 30.5283C127.222 29.9087 126.485 29.4186 125.674 29.0865C124.864 28.7545 123.995 28.5871 123.119 28.5942C121.327 28.5211 119.551 28.9529 117.993 29.8403L117.934 29.8721L117.845 29.92C117.772 29.9533 117.702 29.9907 117.634 30.0321C117.447 30.1491 117.254 30.2766 117.058 30.4134C116.517 30.805 116.01 31.2414 115.542 31.7181C114.238 32.9912 113.416 34.6771 113.216 36.4885L113.202 36.5343V36.6104C113.194 36.671 113.185 36.7323 113.178 36.7929C113.172 36.9551 113.167 37.1169 113.162 37.2786C113.145 37.7286 113.164 38.1792 113.218 38.6262C113.269 39.6826 113.725 40.6787 114.491 41.4083C115 41.7797 115.61 41.9885 116.24 42.0074C116.583 42.0478 117.221 42.0993 118.157 42.1618L118.489 42.1822L118.836 42.2174C119.107 42.2395 119.354 42.2574 119.575 42.271C120.198 42.3128 120.797 42.3554 121.371 42.3986C122.11 42.4498 122.846 42.5389 123.577 42.6657C123.769 42.6941 123.953 42.7665 124.113 42.8774C124.273 42.9883 124.405 43.1346 124.499 43.305C124.566 43.522 124.586 43.7504 124.559 43.9756C124.532 44.2008 124.458 44.4179 124.343 44.6132C124.129 45.1024 123.76 45.5078 123.293 45.767C122.738 45.9288 122.149 45.9308 121.593 45.7727C121.311 45.7205 120.897 45.6371 120.351 45.5225L119.669 45.3766L118.987 45.2299C118.114 45.0364 117.223 44.9418 116.329 44.948C115.986 44.9307 115.643 44.9938 115.328 45.1323C115.014 45.2708 114.736 45.481 114.517 45.7459C114.279 46.1387 114.201 46.6078 114.3 47.0562C114.326 47.255 114.367 47.4515 114.423 47.6441C114.449 47.7598 114.493 47.8708 114.553 47.9732C115.355 49.2833 116.852 50.1479 119.043 50.567C120.848 50.906 122.701 50.906 124.507 50.567L124.597 50.5487L124.717 50.5297L125.016 50.4592C125.275 50.4122 125.53 50.354 125.779 50.2844C126.456 50.1079 127.118 49.88 127.76 49.6028C129.546 48.8214 130.619 47.7935 130.979 46.5191L130.983 46.5198ZM112.955 29.4781C113.366 30.3478 112.468 31.6062 110.262 33.2532C109.635 33.7287 108.926 34.3034 108.134 34.9773C107.083 35.8813 106.128 36.7791 105.27 37.6705C102.862 40.1454 101.557 42.1702 101.354 43.7448C101.253 44.4301 101.204 45.1222 101.209 45.815C101.198 46.0767 101.202 46.3389 101.221 46.6002L101.24 46.9441V47.2458C101.284 47.5679 101.261 47.8956 101.173 48.2086C101.085 48.5215 100.934 48.813 100.729 49.065C100.232 49.5369 99.5892 49.8262 98.9065 49.8855C98.1153 49.9921 97.3113 49.9548 96.5333 49.7755C95.767 49.6215 95.032 49.3401 94.3588 48.9431C93.7958 48.6383 93.3557 48.1479 93.1134 47.5552C92.9474 46.732 93.0915 45.8765 93.518 45.1531C94.1217 43.9539 94.7963 42.7917 95.538 41.6726C95.8566 41.1642 95.7234 39.0966 95.1384 35.47L94.9735 34.3718L94.7712 33.28C94.6133 32.3552 94.4975 31.6626 94.4237 31.2021C94.2295 30.1145 94.0928 29.0174 94.0142 27.9154C93.9268 25.6966 93.8979 24.4793 93.9275 24.2636C93.9233 23.9859 94.0208 23.7162 94.2016 23.5054C94.3825 23.2945 94.6342 23.1571 94.9093 23.1189C95.9302 23.0185 96.9602 23.1697 97.9091 23.5595C98.8873 23.8642 99.7826 24.3891 100.526 25.0939C100.725 25.2823 100.867 25.5222 100.937 25.7868C101.044 26.3259 100.993 26.8845 100.79 27.3952C100.724 27.6084 100.639 27.8147 100.533 28.0113C100.499 28.0843 100.46 28.155 100.416 28.2227L100.366 28.332L100.313 28.3877C99.5987 29.5474 99.3029 31.2359 99.426 33.4534C99.4667 34.2199 99.5814 34.9807 99.7685 35.7251C99.9565 36.3623 100.15 36.699 100.349 36.7351C100.785 36.8188 101.531 35.8287 102.589 33.7649C103.449 32.1902 104.072 30.4969 104.437 28.7401L104.424 28.6647L104.432 28.578C104.455 28.5018 104.473 28.4241 104.485 28.3454C104.533 28.1466 104.591 27.9506 104.661 27.7582C104.837 27.2934 105.137 26.8858 105.529 26.5797C105.749 26.4417 105.998 26.3583 106.257 26.3366C107.581 26.2924 108.892 26.6011 110.058 27.231C111.623 27.9509 112.589 28.698 112.958 29.4724L112.955 29.4781ZM89.2332 17.6056C89.5351 18.3298 89.5796 19.1356 89.3594 19.8886C89.3018 20.2512 89.1724 20.5987 88.9787 20.9106C88.7851 21.2225 88.5311 21.4926 88.2316 21.705C87.88 21.8981 87.4677 21.9485 87.0799 21.846C86.8716 21.7962 86.6667 21.7329 86.4667 21.6564L86.1551 21.5267L85.8274 21.3787C85.3594 21.1731 84.8714 21.0165 84.3712 20.9114C83.7933 20.8246 83.2029 20.8854 82.6549 21.0883C82.2899 21.2142 81.9508 21.4053 81.654 21.6521C81.5548 21.7461 81.4608 21.8401 81.372 21.9341C81.3364 21.974 81.3043 22.0169 81.2762 22.0624L81.2001 22.1582C80.8129 22.741 80.6006 23.4224 80.5883 24.1219C80.5474 24.418 80.5696 24.7193 80.6533 25.0062C80.737 25.2931 80.8803 25.5591 81.0739 25.7868C81.1945 25.8825 81.3343 25.951 81.4838 25.9875C81.6334 26.024 81.7891 26.0276 81.9402 25.9982C82.0083 25.9931 82.1281 25.9862 82.2996 25.9778L82.5047 25.9616L82.7275 25.9461C83.1269 25.9122 83.5307 25.8958 83.9391 25.8967C84.5508 25.8805 85.163 25.9041 85.7717 25.9672C86.1445 25.9909 86.4978 26.1419 86.7726 26.3951C87.0043 26.7058 87.168 27.0618 87.253 27.44C87.338 27.8181 87.3424 28.21 87.266 28.5899C87.2648 28.9705 87.1819 29.3465 87.023 29.6923C86.8641 30.0381 86.6328 30.3458 86.3447 30.5945C86.0111 30.7858 85.6155 30.8377 85.2438 30.739L85.0591 30.7059L84.8413 30.6699C84.6533 30.6422 84.4792 30.6215 84.319 30.6079C83.8483 30.5449 83.3743 30.5098 82.8994 30.5029C82.2501 30.4707 81.5994 30.5238 80.9639 30.6608C80.8237 30.6954 80.6881 30.7467 80.5601 30.8137C80.5264 30.8425 80.49 30.868 80.4515 30.8899L80.4149 30.9209L80.3944 30.9533C80.1355 31.1929 79.9527 32.1966 79.8461 33.9644C79.7991 34.6326 79.7725 35.3374 79.7664 36.0789C79.7551 36.7274 79.7608 37.2518 79.7833 37.6522C79.7948 37.9194 79.7506 38.186 79.6537 38.4353C79.5568 38.6845 79.4092 38.911 79.2202 39.1003C79.0313 39.2895 78.8051 39.4375 78.556 39.5349C78.3069 39.6323 78.0403 39.6769 77.7731 39.6659C77.5922 39.6617 77.3831 39.6549 77.1458 39.6455L76.8399 39.6363L76.5685 39.6299C76.2349 39.6324 75.9013 39.6149 75.5698 39.5778C74.9963 39.5267 74.4654 39.2541 74.0896 38.818C73.5863 38.2071 73.3789 37.1926 73.4672 35.7744L73.4982 35.4185L73.5151 35.0273C73.5302 34.7209 73.5487 34.4378 73.5708 34.178C73.6206 33.4642 73.6676 32.7962 73.7118 32.1741C73.848 30.466 74.005 28.9076 74.1826 27.4988C74.66 23.5423 75.2974 20.6872 76.0949 18.9336C76.1921 18.7259 76.2748 18.5565 76.343 18.4254C76.4315 18.2512 76.5311 18.0829 76.6411 17.9214C76.8653 17.5572 77.1583 17.2402 77.5038 16.9882C77.6974 16.8472 77.8546 16.7354 77.9754 16.6527C78.1676 16.5216 78.3475 16.406 78.5153 16.3059C78.9491 16.073 79.41 15.8948 79.8876 15.7751C81.3999 15.4756 82.9608 15.5284 84.4494 15.9295C86.8083 16.4516 87.9934 16.7131 88.0046 16.714C88.2614 16.7675 88.504 16.8746 88.7164 17.0284C88.9289 17.1822 89.1064 17.3791 89.2374 17.6063L89.2332 17.6056ZM52.0173 31.5158C52.0057 30.5255 52.07 29.5358 52.2097 28.5554C52.2461 28.2683 52.3425 27.992 52.4926 27.7445C52.6426 27.497 52.8431 27.2839 53.0809 27.1189C53.5443 26.8729 54.0526 26.7229 54.5753 26.678C55.0981 26.633 55.6245 26.6941 56.1231 26.8574C57.2878 27.1397 58.39 27.6356 59.3738 28.32C60.2593 28.9475 61.0226 29.7317 61.6258 30.634C62.132 31.4167 62.5459 32.2555 62.8593 33.1334C63 33.4942 63.1223 33.8619 63.2258 34.2351C63.2671 34.3788 63.3108 34.5391 63.3569 34.7158L63.4175 34.9138L63.4605 35.114C63.4955 35.3971 63.6014 35.6667 63.7685 35.8978C63.7891 35.8829 63.8061 35.8636 63.8183 35.8412C63.8305 35.8189 63.8376 35.7942 63.839 35.7688C63.8644 35.6147 63.8725 35.4581 63.863 35.3022C63.807 34.3726 63.7026 33.4466 63.55 32.5279C63.4739 32.0345 63.3971 31.5353 63.3195 31.0301C63.2641 30.6937 63.1936 30.2851 63.1081 29.8044C62.9582 28.9205 62.8642 28.3376 62.8261 28.0557C62.6841 27.3832 62.7995 26.682 63.1497 26.0906C63.6215 25.4359 64.2873 24.9462 65.0527 24.6907C65.7365 24.3798 66.5126 24.3392 67.2251 24.5773C67.4748 24.6909 67.6973 24.8566 67.8777 25.0632C68.0581 25.2699 68.1922 25.5128 68.2711 25.7755C68.5231 26.5815 68.7003 27.4089 68.8004 28.2474C69.073 30.0659 69.2889 31.8858 69.4482 33.7071C69.5036 34.3067 69.5494 34.8729 69.5856 35.4058C69.5978 35.5877 69.6086 35.7578 69.618 35.9161C69.6143 35.9733 69.6162 36.0306 69.6237 36.0874L69.63 36.1381L69.6202 36.191C69.6845 37.4644 69.7839 38.8307 69.9183 40.2897L69.9542 40.6964L69.986 41.07C70.0146 41.3754 70.0381 41.6068 70.0564 41.7642C70.0973 42.2515 70.1251 42.6371 70.1396 42.9209C70.1876 43.4663 70.15 44.0159 70.0283 44.5498C69.9031 44.9658 69.6611 45.3371 69.3312 45.6197C68.6998 46.1502 67.9364 46.4995 67.1222 46.6305C66.3621 46.7957 65.5694 46.7196 64.8547 46.4127C64.3285 46.1396 63.9255 45.6771 63.7269 45.1186C63.598 44.8021 63.4871 44.4785 63.395 44.1494L63.3245 43.8675L63.254 43.5855C63.1764 43.344 63.1156 43.1403 63.0714 42.9744C62.5227 41.1108 61.7454 39.3221 60.7574 37.6493C59.89 36.1612 59.308 35.4594 59.0115 35.544C58.8236 35.6022 58.8038 36.2342 58.9523 37.44C59.0115 37.8902 59.0942 38.4343 59.2004 39.0724L59.3238 39.8802L59.3942 40.2664L59.4577 40.6188C59.5319 41.0103 59.613 41.4118 59.7009 41.8234C59.7478 42.0917 59.8139 42.4207 59.8989 42.8102C60.0483 43.5447 60.1449 44.0294 60.1886 44.2643C60.3221 44.9092 60.248 45.5798 59.9772 46.1801C59.529 47.018 58.8381 47.701 57.9951 48.1396C57.6434 48.3743 57.2479 48.5356 56.8324 48.6137C56.4168 48.6918 55.9897 48.6852 55.5768 48.5942C55.108 48.4555 54.7078 48.1469 54.4547 47.7286C54.3194 47.5332 54.206 47.3235 54.1164 47.1034C54.0215 46.9015 53.9372 46.6947 53.864 46.4839C52.5154 42.8041 51.901 37.8145 52.0209 31.5151L52.0173 31.5158ZM34.9192 33.1411L34.9671 33.0819C34.947 33.0979 34.9306 33.1181 34.9192 33.1411ZM29.4334 33.7205C29.5349 35.6429 30.2244 38.3702 31.5021 41.9024C31.9936 43.2618 32.5424 44.6513 33.1486 46.0708C33.6514 47.263 34.1213 48.3144 34.5583 49.225C35.1508 50.451 35.827 51.1911 36.5868 51.4453C37.1532 51.6248 37.7661 51.5869 38.306 51.3388C38.5475 51.2421 38.8642 51.0924 39.2561 50.8899L39.5197 50.7327L39.7904 50.5917C40.0122 50.4789 40.2081 50.3777 40.3782 50.2879C41.3336 49.8042 42.3267 49.3987 43.3477 49.0756C43.7063 48.9633 44.0871 48.8594 44.4903 48.764C44.6312 48.7246 44.7997 48.6856 44.9957 48.647L45.2325 48.5956L45.4439 48.5357C45.9367 48.4378 46.4179 48.2887 46.8797 48.0909C47.2911 47.8648 47.6279 47.5239 47.8489 47.1098C48.2991 46.3037 48.4724 45.3722 48.3423 44.4581C48.3495 44.0908 48.2686 43.7271 48.1064 43.3974C47.9441 43.0678 47.7053 42.7818 47.4097 42.5635C47.0812 42.4543 46.7239 42.4699 46.406 42.6072C45.9047 42.7599 44.7985 43.1925 43.0876 43.9048C41.9058 44.3902 41.1742 44.6781 40.8927 44.7683C40.5455 44.8907 40.1658 44.8835 39.8235 44.7478C39.2953 44.4744 38.8954 44.0047 38.7098 43.4396C38.4683 42.8767 38.44 42.245 38.6302 41.6627L38.6471 41.6176L38.6711 41.5859C38.6864 41.5442 38.7058 41.504 38.7289 41.4661C38.8115 41.341 38.9101 41.2273 39.0221 41.1277C39.548 40.6932 40.122 40.3202 40.7327 40.0162C41.1918 39.7709 41.6451 39.5531 42.0924 39.3628C42.2409 39.3078 42.4103 39.2437 42.6006 39.1704L42.8085 39.095L43.0164 39.0196C43.4023 38.9144 43.7356 38.6704 43.9525 38.3344C44.0988 37.9907 44.1642 37.618 44.1436 37.2451C44.1231 36.8721 44.0172 36.5088 43.8341 36.1833C43.7172 35.8232 43.5201 35.4944 43.2577 35.2215C42.9954 34.9487 42.6745 34.7389 42.3194 34.6079C41.9439 34.5341 41.5547 34.5797 41.2064 34.7383C40.9033 34.8633 40.3307 35.1598 39.4887 35.6278C39.1101 35.824 38.7423 36.0405 38.387 36.2763L38.1847 36.4053L37.9979 36.5272C37.8532 36.6179 37.7522 36.6823 37.6949 36.7203C37.4371 36.9188 37.1137 37.012 36.7898 36.9811C36.5106 36.897 36.254 36.7509 36.0391 36.5538C35.8242 36.3567 35.6565 36.1137 35.5486 35.8428C35.2134 35.2465 35.0839 34.5564 35.18 33.8791C35.1863 33.8416 35.1878 33.8035 35.1842 33.7656C35.1952 33.7144 35.2098 33.664 35.2279 33.6148C35.2588 33.4862 35.3015 33.3606 35.3555 33.2398C35.5048 32.8738 35.7174 32.5369 35.9835 32.2446C36.3967 31.7965 36.9116 31.4545 37.4848 31.2472C37.9923 31.0691 38.5189 30.9509 39.0538 30.8948L39.4203 30.8412L39.7868 30.7877C40.0092 30.7522 40.2291 30.7026 40.4452 30.6389C40.8473 30.5313 41.1964 30.2807 41.427 29.9341C41.597 29.6152 41.6996 29.2647 41.7284 28.9045C41.7573 28.5442 41.7118 28.1819 41.5948 27.84C41.4341 27.1027 41.0075 26.4503 40.3965 26.0074C40.1595 25.8763 39.8974 25.7968 39.6275 25.7743C39.3576 25.7517 39.0859 25.7864 38.8304 25.8763C38.82 25.881 37.6021 26.2583 35.1764 27.0083C33.6813 27.3985 32.3029 28.1448 31.1588 29.1834C30.8298 29.5177 30.5492 29.8964 30.325 30.3084C30.2493 30.4423 30.1568 30.6213 30.0473 30.8455L29.7851 31.3755C29.5923 31.7555 29.4766 32.17 29.4446 32.5949C29.4219 32.7865 29.4099 32.9792 29.4087 33.1722C29.4087 33.3094 29.4171 33.4924 29.4341 33.7212L29.4334 33.7205Z" fill="white"/>
<path d="M131.343 15.3741C135.236 15.3741 138.392 12.2184 138.392 8.32563C138.392 4.43288 135.236 1.27718 131.343 1.27718C127.451 1.27718 124.295 4.43288 124.295 8.32563C124.295 12.2184 127.451 15.3741 131.343 15.3741Z" fill="url(#paint3_linear_56_656)"/>
<path d="M66.8281 75.5397C70.1614 75.5397 72.8637 72.8375 72.8637 69.5041C72.8637 66.1708 70.1614 63.4686 66.8281 63.4686C63.4947 63.4686 60.7925 66.1708 60.7925 69.5041C60.7925 72.8375 63.4947 75.5397 66.8281 75.5397Z" fill="url(#paint4_linear_56_656)"/>
<path d="M9.29528 28.425C14.0152 28.425 17.8415 24.5987 17.8415 19.8788C17.8415 15.1588 14.0152 11.3325 9.29528 11.3325C4.57531 11.3325 0.749023 15.1588 0.749023 19.8788C0.749023 24.5987 4.57531 28.425 9.29528 28.425Z" fill="url(#paint5_linear_56_656)"/>
<defs>
<linearGradient id="paint0_linear_56_656" x1="153.634" y1="34.5593" x2="6.45324" y2="34.5593" gradientUnits="userSpaceOnUse">
<stop stop-color="#209487"/>
<stop offset="0.994" stop-color="#82E5CC"/>
<stop offset="1" stop-color="#82E5CC"/>
</linearGradient>
<linearGradient id="paint1_linear_56_656" x1="21.035" y1="42.8412" x2="138.326" y2="42.8412" gradientUnits="userSpaceOnUse">
<stop stop-color="#FF8A00"/>
<stop offset="0.994" stop-color="#FBDE1F"/>
<stop offset="1" stop-color="#FBDE1F"/>
</linearGradient>
<linearGradient id="paint2_linear_56_656" x1="121.366" y1="50.4846" x2="38.7224" y2="50.4846" gradientUnits="userSpaceOnUse">
<stop stop-color="#CA0303"/>
<stop offset="1" stop-color="#F92D2D"/>
</linearGradient>
<linearGradient id="paint3_linear_56_656" x1="138.37" y1="15.3522" x2="124.317" y2="1.29973" gradientUnits="userSpaceOnUse">
<stop stop-color="#209487"/>
<stop offset="0.994" stop-color="#82E5CC"/>
<stop offset="1" stop-color="#82E5CC"/>
</linearGradient>
<linearGradient id="paint4_linear_56_656" x1="72.8517" y1="75.5285" x2="60.8038" y2="63.4805" gradientUnits="userSpaceOnUse">
<stop stop-color="#FF8A00"/>
<stop offset="0.994" stop-color="#FBDE1F"/>
<stop offset="1" stop-color="#FBDE1F"/>
</linearGradient>
<linearGradient id="paint5_linear_56_656" x1="17.8303" y1="28.4144" x2="0.759593" y2="11.3438" gradientUnits="userSpaceOnUse">
<stop stop-color="#CA0303"/>
<stop offset="1" stop-color="#F92D2D"/>
</linearGradient>
</defs>
</svg>
