<svg width="38" height="52" viewBox="0 0 38 52" fill="none" xmlns="http://www.w3.org/2000/svg">
<path d="M13.6798 0.333241C13.7248 -0.11108 14.2752 -0.11108 14.3202 0.333241L14.6978 4.06069C15.1853 8.87384 18.4248 12.6686 22.5335 13.2397L25.7155 13.682C26.0948 13.7348 26.0948 14.3795 25.7155 14.4323L22.5335 14.8746C18.4248 15.4457 15.1853 19.2405 14.6978 24.0536L14.3202 27.781C14.2752 28.2254 13.7248 28.2254 13.6798 27.781L13.3022 24.0536C12.8147 19.2405 9.57523 15.4457 5.46644 14.8746L2.28447 14.4323C1.90518 14.3795 1.90518 13.7348 2.28447 13.682L5.46644 13.2397C9.57523 12.6686 12.8147 8.87384 13.3022 4.06069L13.6798 0.333241Z" fill="#FAF7F1"/>
<path d="M31.8399 26.2008C31.8624 25.9331 32.1376 25.9331 32.1601 26.2008L32.3489 28.4469C32.5927 31.3472 34.2124 33.6339 36.2668 33.978L37.8577 34.2445C38.0474 34.2763 38.0474 34.6648 37.8577 34.6966L36.2668 34.9631C34.2124 35.3073 32.5927 37.594 32.3489 40.4943L32.1601 42.7403C32.1376 43.0081 31.8624 43.0081 31.8399 42.7403L31.6511 40.4943C31.4073 37.594 29.7876 35.3073 27.7332 34.9631L26.1422 34.6966C25.9526 34.6648 25.9526 34.2763 26.1422 34.2445L27.7332 33.978C29.7876 33.6339 31.4073 31.3472 31.6511 28.4469L31.8399 26.2008Z" fill="#FAF7F1"/>
<path d="M3.89325 41.1293C3.90827 40.9569 4.09173 40.9569 4.10675 41.1293L4.2326 42.5757C4.39511 44.4433 5.47493 45.9158 6.84451 46.1374L7.90516 46.309C8.03161 46.3295 8.03161 46.5796 7.90516 46.6001L6.84451 46.7717C5.47493 46.9933 4.39511 48.4658 4.2326 50.3334L4.10675 51.7798C4.09173 51.9522 3.90827 51.9522 3.89325 51.7798L3.7674 50.3334C3.6049 48.4658 2.52508 46.9933 1.15548 46.7717L0.0948246 46.6001C-0.0316082 46.5796 -0.0316082 46.3295 0.0948246 46.309L1.15548 46.1374C2.52508 45.9158 3.6049 44.4433 3.7674 42.5757L3.89325 41.1293Z" fill="#FAF7F1"/>
</svg>
