<svg width="32" height="40" viewBox="0 0 32 40" fill="none" xmlns="http://www.w3.org/2000/svg">
<path d="M9.73314 16.2777C9.77067 15.9074 10.2293 15.9074 10.2669 16.2777L10.5815 19.3839C10.9878 23.3949 13.6873 26.5572 17.1113 27.0331L19.7629 27.4017C20.079 27.4456 20.079 27.9829 19.7629 28.0269L17.1113 28.3955C13.6873 28.8714 10.9878 32.0337 10.5815 36.0446L10.2669 39.1508C10.2293 39.5211 9.77067 39.5211 9.73314 39.1508L9.41851 36.0446C9.01224 32.0337 6.31269 28.8714 2.8887 28.3955L0.237062 28.0269C-0.0790205 27.9829 -0.0790205 27.4456 0.237062 27.4017L2.8887 27.0331C6.31269 26.5572 9.01224 23.3949 9.41851 19.3839L9.73314 16.2777Z" fill="#FAF7F1"/>
<path d="M25.8399 0.200805C25.8624 -0.066935 26.1376 -0.066935 26.1601 0.200805L26.3489 2.4469C26.5927 5.34722 28.2124 7.6339 30.2668 7.97803L31.8577 8.24454C32.0474 8.27633 32.0474 8.66484 31.8577 8.69664L30.2668 8.96315C28.2124 9.30728 26.5927 11.594 26.3489 14.4943L26.1601 16.7403C26.1376 17.0081 25.8624 17.0081 25.8399 16.7403L25.6511 14.4943C25.4073 11.594 23.7876 9.30728 21.7332 8.96315L20.1422 8.69664C19.9526 8.66484 19.9526 8.27633 20.1422 8.24454L21.7332 7.97803C23.7876 7.6339 25.4073 5.34722 25.6511 2.4469L25.8399 0.200805Z" fill="#FAF7F1"/>
</svg>
